<?xml version="1.0"?>
<svg xmlns="http://www.w3.org/2000/svg" id="Capa_1" enable-background="new 0 0 497 497" height="512px" viewBox="0 0 497 497" width="512px" class=""><g><circle cx="248.5" cy="248.5" fill="#fef5e4" r="248.5" data-original="#FEF5E4" class="" style="fill:#FFFFFF" data-old_color="#fef5e4"/><circle cx="248.5" cy="248.5" fill="#fee4c2" r="208.25" data-original="#FEE4C2" class="" style="fill:#FFFFFF" data-old_color="#fee4c2"/><path d="m248.5 40.25c-8.119 0-16.124.481-24 1.385 103.707 11.903 184.25 99.97 184.25 206.865s-80.543 194.963-184.25 206.865c7.876.904 15.881 1.385 24 1.385 115.013 0 208.25-93.237 208.25-208.25s-93.237-208.25-208.25-208.25z" fill="#fed49d" data-original="#FED49D" class="" style="fill:#FFFFFF" data-old_color="#fed49d"/><path d="m340.189 238.76-151.178-87.282c-7.498-4.329-16.87 1.082-16.87 9.74v174.565c0 8.658 9.372 14.069 16.87 9.74l151.178-87.282c7.498-4.33 7.498-15.152 0-19.481z" fill="#20c4cd" data-original="#20C4CD" class="active-path" data-old_color="#20c4cd" style="fill:#093845"/></g> </svg>
